<?xml version="1.0" encoding="UTF-8"?>
<svg width="400" height="320" viewBox="0 0 400 320" xmlns="http://www.w3.org/2000/svg">
  <rect width="100%" height="100%" fill="#111827"/>
  
  <!-- Background grid -->
  <defs>
    <pattern id="grid" width="20" height="20" patternUnits="userSpaceOnUse">
      <path d="M 20 0 L 0 0 0 20" fill="none" stroke="#374151" stroke-width="0.5" opacity="0.3"/>
    </pattern>
  </defs>
  <rect width="100%" height="100%" fill="url(#grid)" />
  
  <!-- Sample vectors in regular grid pattern -->
  <g id="vectors">
    <!-- Row 1 -->
    <line x1="80" y1="64" x2="95" y2="79" stroke="hsl(0, 70%, 60%)" stroke-width="2" stroke-linecap="round"/>
    <circle cx="95" cy="79" r="2" fill="hsl(0, 70%, 60%)"/>
    <circle cx="80" cy="64" r="1.5" fill="#ffffff" opacity="0.6"/>
    
    <line x1="160" y1="64" x2="170" y2="84" stroke="hsl(72, 70%, 60%)" stroke-width="2" stroke-linecap="round"/>
    <circle cx="170" cy="84" r="2" fill="hsl(72, 70%, 60%)"/>
    <circle cx="160" cy="64" r="1.5" fill="#ffffff" opacity="0.6"/>
    
    <line x1="240" y1="64" x2="245" y2="89" stroke="hsl(144, 70%, 60%)" stroke-width="2" stroke-linecap="round"/>
    <circle cx="245" cy="89" r="2" fill="hsl(144, 70%, 60%)"/>
    <circle cx="240" cy="64" r="1.5" fill="#ffffff" opacity="0.6"/>
    
    <line x1="320" y1="64" x2="315" y2="89" stroke="hsl(216, 70%, 60%)" stroke-width="2" stroke-linecap="round"/>
    <circle cx="315" cy="89" r="2" fill="hsl(216, 70%, 60%)"/>
    <circle cx="320" cy="64" r="1.5" fill="#ffffff" opacity="0.6"/>
    
    <!-- Row 2 -->
    <line x1="80" y1="128" x2="65" y2="143" stroke="hsl(288, 70%, 60%)" stroke-width="2" stroke-linecap="round"/>
    <circle cx="65" cy="143" r="2" fill="hsl(288, 70%, 60%)"/>
    <circle cx="80" cy="128" r="1.5" fill="#ffffff" opacity="0.6"/>
    
    <line x1="160" y1="128" x2="150" y2="108" stroke="hsl(0, 70%, 60%)" stroke-width="2" stroke-linecap="round"/>
    <circle cx="150" cy="108" r="2" fill="hsl(0, 70%, 60%)"/>
    <circle cx="160" cy="128" r="1.5" fill="#ffffff" opacity="0.6"/>
    
    <line x1="240" y1="128" x2="255" y2="113" stroke="hsl(72, 70%, 60%)" stroke-width="2" stroke-linecap="round"/>
    <circle cx="255" cy="113" r="2" fill="hsl(72, 70%, 60%)"/>
    <circle cx="240" cy="128" r="1.5" fill="#ffffff" opacity="0.6"/>
    
    <line x1="320" y1="128" x2="335" y2="118" stroke="hsl(144, 70%, 60%)" stroke-width="2" stroke-linecap="round"/>
    <circle cx="335" cy="118" r="2" fill="hsl(144, 70%, 60%)"/>
    <circle cx="320" cy="128" r="1.5" fill="#ffffff" opacity="0.6"/>
    
    <!-- Row 3 -->
    <line x1="80" y1="192" x2="95" y2="177" stroke="hsl(216, 70%, 60%)" stroke-width="2" stroke-linecap="round"/>
    <circle cx="95" cy="177" r="2" fill="hsl(216, 70%, 60%)"/>
    <circle cx="80" cy="192" r="1.5" fill="#ffffff" opacity="0.6"/>
    
    <line x1="160" y1="192" x2="175" y2="207" stroke="hsl(288, 70%, 60%)" stroke-width="2" stroke-linecap="round"/>
    <circle cx="175" cy="207" r="2" fill="hsl(288, 70%, 60%)"/>
    <circle cx="160" cy="192" r="1.5" fill="#ffffff" opacity="0.6"/>
    
    <line x1="240" y1="192" x2="225" y2="207" stroke="hsl(0, 70%, 60%)" stroke-width="2" stroke-linecap="round"/>
    <circle cx="225" cy="207" r="2" fill="hsl(0, 70%, 60%)"/>
    <circle cx="240" cy="192" r="1.5" fill="#ffffff" opacity="0.6"/>
    
    <line x1="320" y1="192" x2="305" y2="177" stroke="hsl(72, 70%, 60%)" stroke-width="2" stroke-linecap="round"/>
    <circle cx="305" cy="177" r="2" fill="hsl(72, 70%, 60%)"/>
    <circle cx="320" cy="192" r="1.5" fill="#ffffff" opacity="0.6"/>
    
    <!-- Row 4 -->
    <line x1="80" y1="256" x2="65" y2="241" stroke="hsl(144, 70%, 60%)" stroke-width="2" stroke-linecap="round"/>
    <circle cx="65" cy="241" r="2" fill="hsl(144, 70%, 60%)"/>
    <circle cx="80" cy="256" r="1.5" fill="#ffffff" opacity="0.6"/>
    
    <line x1="160" y1="256" x2="145" y2="271" stroke="hsl(216, 70%, 60%)" stroke-width="2" stroke-linecap="round"/>
    <circle cx="145" cy="271" r="2" fill="hsl(216, 70%, 60%)"/>
    <circle cx="160" cy="256" r="1.5" fill="#ffffff" opacity="0.6"/>
    
    <line x1="240" y1="256" x2="255" y2="271" stroke="hsl(288, 70%, 60%)" stroke-width="2" stroke-linecap="round"/>
    <circle cx="255" cy="271" r="2" fill="hsl(288, 70%, 60%)"/>
    <circle cx="240" cy="256" r="1.5" fill="#ffffff" opacity="0.6"/>
    
    <line x1="320" y1="256" x2="335" y2="241" stroke="hsl(0, 70%, 60%)" stroke-width="2" stroke-linecap="round"/>
    <circle cx="335" cy="241" r="2" fill="hsl(0, 70%, 60%)"/>
    <circle cx="320" cy="256" r="1.5" fill="#ffffff" opacity="0.6"/>
  </g>
  
  <!-- Info overlay -->
  <rect x="5" y="5" width="120" height="25" fill="#000000" fill-opacity="0.7" rx="3"/>
  <text x="10" y="20" fill="#ffffff" font-family="monospace" font-size="12">16 vectores • regular</text>
</svg>